<?xml version="1.0" encoding="utf-8"?>
<svg xmlns="http://www.w3.org/2000/svg" viewBox="60 60 390 44" width="390px" height="44px">
  <g id="object-25" transform="matrix(0.9999999999999999, 0, 0, 0.9999999999999999, 0, -7.105427357601002e-15)">
    <rect x="60" y="60" width="60" height="4" style="paint-order: fill; stroke: rgb(0, 0, 0); stroke-linejoin: round;" id="object-0"/>
    <rect x="60" y="70" width="60" height="4" style="paint-order: fill; stroke: rgb(0, 0, 0); stroke-linejoin: round; stroke-width: 1;" id="object-1"/>
    <rect x="80" y="80" width="40" height="4" style="paint-order: fill; stroke: rgb(0, 0, 0); stroke-linejoin: round; stroke-width: 1;" id="object-2"/>
    <rect x="60" y="90" width="60" height="4" style="paint-order: fill; stroke: rgb(0, 0, 0); stroke-linejoin: round; stroke-width: 1;" id="object-3"/>
    <rect x="60" y="100" width="60" height="4" style="paint-order: fill; stroke: rgb(0, 0, 0); stroke-linejoin: round; stroke-width: 1;" id="object-4"/>
    <rect x="140" y="60" width="45" height="4" style="paint-order: fill; stroke: rgb(0, 0, 0); stroke-linejoin: round; stroke-width: 1;" id="object-5"/>
    <rect x="140" y="70" width="60" height="4" style="paint-order: fill; stroke: rgb(0, 0, 0); stroke-linejoin: round; stroke-width: 1;" id="object-6"/>
    <rect x="140" y="80" width="60" height="4" style="paint-order: fill; stroke: rgb(0, 0, 0); stroke-linejoin: round; stroke-width: 1;" id="object-7"/>
    <rect x="140" y="90" width="60" height="4" style="paint-order: fill; stroke: rgb(0, 0, 0); stroke-linejoin: round; stroke-width: 1;" id="object-8"/>
    <rect x="140" y="100" width="45" height="4" style="paint-order: fill; stroke: rgb(0, 0, 0); stroke-linejoin: round; stroke-width: 1;" id="object-9"/>
    <rect x="240" y="60" width="60" height="4" style="paint-order: fill; stroke: rgb(0, 0, 0); stroke-linejoin: round; stroke-width: 1;" id="object-10"/>
    <rect x="240" y="70" width="60" height="4" style="paint-order: fill; stroke: rgb(0, 0, 0); stroke-linejoin: round; stroke-width: 1;" id="object-11"/>
    <rect x="240" y="80" width="60" height="4" style="paint-order: fill; stroke: rgb(0, 0, 0); stroke-linejoin: round; stroke-width: 1;" id="object-12"/>
    <rect x="240" y="90" width="30" height="4" style="paint-order: fill; stroke: rgb(0, 0, 0); stroke-linejoin: round; stroke-width: 1;" id="object-13"/>
    <rect x="240" y="100" width="30" height="4" style="paint-order: fill; stroke: rgb(0, 0, 0); stroke-linejoin: round; stroke-width: 1;" id="object-14"/>
    <rect x="330" y="60" width="20" height="4" style="paint-order: fill; stroke: rgb(0, 0, 0); stroke-linejoin: round; stroke-width: 1;" id="object-15"/>
    <rect x="324.954" y="70" width="30" height="4" style="paint-order: fill; stroke: rgb(0, 0, 0); stroke-linejoin: round; stroke-width: 1;" id="object-16"/>
    <rect x="320" y="80" width="40" height="4" style="paint-order: fill; stroke: rgb(0, 0, 0); stroke-linejoin: round; stroke-width: 1;" id="object-17"/>
    <rect x="315" y="90" width="50" height="4" style="paint-order: fill; stroke: rgb(0, 0, 0); stroke-linejoin: round; stroke-width: 1;" id="object-18"/>
    <rect x="310" y="100" width="60" height="4" style="paint-order: fill; stroke: rgb(0, 0, 0); stroke-linejoin: round; stroke-width: 1;" id="object-19"/>
    <rect x="390" y="60" width="50" height="4" style="paint-order: fill; stroke: rgb(0, 0, 0); stroke-linejoin: round; stroke-width: 1;" id="object-20"/>
    <rect x="390" y="70" width="60" height="4" style="paint-order: fill; stroke: rgb(0, 0, 0); stroke-linejoin: round; stroke-width: 1;" id="object-21"/>
    <rect x="390" y="80" width="40" height="4" style="paint-order: fill; stroke: rgb(0, 0, 0); stroke-linejoin: round; stroke-width: 1;" id="object-22"/>
    <rect x="390" y="90" width="60" height="4" style="paint-order: fill; stroke: rgb(0, 0, 0); stroke-linejoin: round; stroke-width: 1;" id="object-23"/>
    <rect x="390" y="100" width="50" height="4" style="paint-order: fill; stroke: rgb(0, 0, 0); stroke-linejoin: round; stroke-width: 1;" id="object-24"/>
  </g>
</svg>