<?xml version="1.0" encoding="UTF-8"?>
<svg id="Livello_2" data-name="Livello 2" xmlns="http://www.w3.org/2000/svg" viewBox="0 0 126.16 163.48">
  <g id="Livello_1-2" data-name="Livello 1">
    <g>
      <rect x=".25" y="157.08" width="125.66" height="1.05"/>
      <rect x=".25" y="146.6" width="125.66" height="1.05"/>
      <rect x=".25" y="136.13" width="125.66" height="1.05"/>
      <rect x=".25" y="125.66" width="125.66" height="1.05"/>
      <rect x=".25" y="115.19" width="125.66" height="1.05"/>
      <rect x=".25" y="104.72" width="125.66" height="1.05"/>
      <rect x=".25" y="94.25" width="125.66" height="1.05"/>
      <rect x=".25" y="83.77" width="125.66" height="1.05"/>
      <rect x=".25" y="73.3" width="125.66" height="1.05"/>
      <rect x=".25" y="62.83" width="125.66" height="1.05"/>
      <rect x=".25" y="52.36" width="125.66" height="1.05"/>
      <rect x=".25" y="41.89" width="125.66" height="1.05"/>
      <rect x=".25" y="31.42" width="125.66" height="1.05"/>
      <rect x=".25" y="20.94" width="125.66" height="1.05"/>
      <rect x=".25" y="10.47" width="125.66" height="1.05"/>
      <rect x=".25" width="125.66" height="1.05"/>
    </g>
    <g>
      <rect x="115.73" y="142.22" width="3.4" height="5.28"/>
      <rect x="112.33" y="142.22" width="3.4" height="5.28"/>
      <rect x="112.33" y="131.72" width="3.4" height="5.25"/>
      <rect x="108.93" y="142.22" width="3.4" height="5.28"/>
      <rect x="108.93" y="131.72" width="3.4" height="5.25"/>
      <rect x="108.93" y="121.23" width="3.4" height="5.25"/>
      <rect x="105.53" y="142.22" width="3.4" height="5.28"/>
      <rect x="105.53" y="131.72" width="3.4" height="5.25"/>
      <rect x="105.53" y="121.23" width="3.4" height="5.25"/>
      <rect x="105.53" y="110.74" width="3.4" height="5.25"/>
      <rect x="102.14" y="142.22" width="3.4" height="5.28"/>
      <rect x="102.14" y="131.72" width="3.4" height="5.25"/>
      <rect x="102.14" y="121.23" width="3.4" height="5.25"/>
      <rect x="102.14" y="110.74" width="3.4" height="5.25"/>
      <rect x="102.14" y="100.25" width="3.4" height="5.25"/>
      <rect x="98.74" y="142.22" width="3.4" height="5.28"/>
      <rect x="98.74" y="131.72" width="3.4" height="5.25"/>
      <rect x="98.74" y="121.23" width="3.4" height="5.25"/>
      <rect x="98.74" y="110.74" width="3.4" height="5.25"/>
      <rect x="98.74" y="100.25" width="3.4" height="5.25"/>
      <rect x="98.74" y="89.76" width="3.4" height="5.25"/>
      <rect x="95.34" y="142.22" width="3.4" height="5.28"/>
      <rect x="95.34" y="131.72" width="3.4" height="5.25"/>
      <rect x="95.34" y="121.23" width="3.4" height="5.25"/>
      <rect x="95.34" y="110.74" width="3.4" height="5.25"/>
      <rect x="95.34" y="100.25" width="3.4" height="5.25"/>
      <rect x="95.34" y="89.76" width="3.4" height="5.25"/>
      <rect x="95.34" y="79.27" width="3.4" height="5.25"/>
      <rect x="91.94" y="131.72" width="3.4" height="5.25"/>
      <rect x="91.94" y="121.23" width="3.4" height="5.25"/>
      <rect x="91.94" y="110.74" width="3.4" height="5.25"/>
      <rect x="91.94" y="100.25" width="3.4" height="5.25"/>
      <rect x="91.94" y="89.76" width="3.4" height="5.25"/>
      <rect x="91.94" y="79.27" width="3.4" height="5.25"/>
      <rect x="91.94" y="68.74" width="3.4" height="5.28"/>
      <rect x="88.54" y="121.23" width="3.4" height="5.25"/>
      <rect x="88.54" y="110.74" width="3.4" height="5.25"/>
      <rect x="88.54" y="100.25" width="3.4" height="5.25"/>
      <rect x="88.54" y="89.76" width="3.4" height="5.25"/>
      <rect x="88.54" y="79.27" width="3.4" height="5.25"/>
      <rect x="88.54" y="68.74" width="3.4" height="5.28"/>
      <rect x="88.54" y="58.25" width="3.4" height="5.25"/>
      <rect x="85.14" y="110.74" width="3.4" height="5.25"/>
      <rect x="85.14" y="100.25" width="3.4" height="5.25"/>
      <rect x="85.14" y="89.76" width="3.4" height="5.25"/>
      <rect x="85.14" y="79.27" width="3.4" height="5.25"/>
      <rect x="85.14" y="68.74" width="3.4" height="5.28"/>
      <rect x="85.14" y="58.25" width="3.4" height="5.25"/>
      <rect x="85.14" y="47.75" width="3.4" height="5.25"/>
      <rect x="81.74" y="100.25" width="3.4" height="5.25"/>
      <rect x="81.74" y="89.76" width="3.4" height="5.25"/>
      <rect x="81.74" y="79.27" width="3.4" height="5.25"/>
      <rect x="81.74" y="68.74" width="3.4" height="5.28"/>
      <rect x="81.74" y="58.25" width="3.4" height="5.25"/>
      <rect x="81.74" y="47.75" width="3.4" height="5.25"/>
      <rect x="81.74" y="37.26" width="3.4" height="5.25"/>
      <rect x="78.38" y="100.25" width="3.36" height="5.25"/>
      <rect x="78.38" y="89.76" width="3.36" height="5.25"/>
      <rect x="78.38" y="79.27" width="3.36" height="5.25"/>
      <rect x="78.38" y="68.74" width="3.36" height="5.28"/>
      <rect x="78.38" y="58.25" width="3.36" height="5.25"/>
      <rect x="78.38" y="47.75" width="3.36" height="5.25"/>
      <rect x="78.38" y="37.26" width="3.36" height="5.25"/>
      <rect x="78.38" y="26.77" width="3.36" height="5.25"/>
      <rect x="74.98" y="100.25" width="3.4" height="5.25"/>
      <rect x="74.98" y="89.76" width="3.4" height="5.25"/>
      <rect x="74.98" y="79.27" width="3.4" height="5.25"/>
      <rect x="74.98" y="68.74" width="3.4" height="5.28"/>
      <rect x="74.98" y="58.25" width="3.4" height="5.25"/>
      <rect x="74.98" y="47.75" width="3.4" height="5.25"/>
      <rect x="74.98" y="37.26" width="3.4" height="5.25"/>
      <rect x="74.98" y="26.77" width="3.4" height="5.25"/>
      <rect x="74.98" y="16.28" width="3.4" height="5.25"/>
      <rect x="71.58" y="100.25" width="3.4" height="5.25"/>
      <rect x="71.58" y="89.76" width="3.4" height="5.25"/>
      <rect x="71.58" y="68.74" width="3.4" height="5.28"/>
      <rect x="71.58" y="58.25" width="3.4" height="5.25"/>
      <rect x="71.58" y="47.75" width="3.4" height="5.25"/>
      <rect x="71.58" y="37.26" width="3.4" height="5.25"/>
      <rect x="71.58" y="26.77" width="3.4" height="5.25"/>
      <rect x="71.58" y="16.28" width="3.4" height="5.25"/>
      <rect x="71.58" y="5.79" width="3.4" height="5.25"/>
      <rect x="68.19" y="100.25" width="3.4" height="5.25"/>
      <rect x="68.19" y="89.76" width="3.4" height="5.25"/>
      <rect x="68.19" y="58.25" width="3.4" height="5.25"/>
      <rect x="68.19" y="47.75" width="3.4" height="5.25"/>
      <rect x="68.19" y="37.26" width="3.4" height="5.25"/>
      <rect x="68.19" y="26.77" width="3.4" height="5.25"/>
      <rect x="68.19" y="16.28" width="3.4" height="5.25"/>
      <rect x="68.19" y="5.79" width="3.4" height="5.25"/>
      <rect x="64.79" y="100.25" width="3.4" height="5.25"/>
      <rect x="64.79" y="89.76" width="3.4" height="5.25"/>
      <rect x="64.79" y="47.75" width="3.4" height="5.25"/>
      <rect x="64.79" y="37.26" width="3.4" height="5.25"/>
      <rect x="64.79" y="26.77" width="3.4" height="5.25"/>
      <rect x="64.79" y="16.28" width="3.4" height="5.25"/>
      <rect x="64.79" y="5.79" width="3.4" height="5.25"/>
      <rect x="61.39" y="100.25" width="3.4" height="5.25"/>
      <rect x="61.39" y="89.76" width="3.4" height="5.25"/>
      <rect x="61.39" y="37.26" width="3.4" height="5.25"/>
      <rect x="61.39" y="26.77" width="3.4" height="5.25"/>
      <rect x="61.39" y="16.28" width="3.4" height="5.25"/>
      <rect x="61.39" y="5.79" width="3.4" height="5.25"/>
      <rect x="57.99" y="100.25" width="3.4" height="5.25"/>
      <rect x="57.99" y="89.76" width="3.4" height="5.25"/>
      <rect x="57.99" y="47.75" width="3.4" height="5.25"/>
      <rect x="57.99" y="37.26" width="3.4" height="5.25"/>
      <rect x="57.99" y="26.77" width="3.4" height="5.25"/>
      <rect x="57.99" y="16.28" width="3.4" height="5.25"/>
      <rect x="57.99" y="5.79" width="3.4" height="5.25"/>
      <rect x="54.59" y="100.25" width="3.4" height="5.25"/>
      <rect x="54.59" y="89.76" width="3.4" height="5.25"/>
      <rect x="54.59" y="58.25" width="3.4" height="5.25"/>
      <rect x="54.59" y="47.75" width="3.4" height="5.25"/>
      <rect x="54.59" y="37.26" width="3.4" height="5.25"/>
      <rect x="54.59" y="26.77" width="3.4" height="5.25"/>
      <rect x="54.59" y="16.28" width="3.4" height="5.25"/>
      <rect x="54.59" y="5.79" width="3.4" height="5.25"/>
      <rect x="51.19" y="100.25" width="3.4" height="5.25"/>
      <rect x="51.19" y="89.76" width="3.4" height="5.25"/>
      <rect x="51.19" y="68.74" width="3.4" height="5.28"/>
      <rect x="51.19" y="58.25" width="3.4" height="5.25"/>
      <rect x="51.19" y="47.75" width="3.4" height="5.25"/>
      <rect x="51.19" y="37.26" width="3.4" height="5.25"/>
      <rect x="51.19" y="26.77" width="3.4" height="5.25"/>
      <rect x="51.19" y="16.28" width="3.4" height="5.25"/>
      <rect x="51.19" y="5.79" width="3.4" height="5.25"/>
      <rect x="47.79" y="100.25" width="3.4" height="5.25"/>
      <rect x="47.79" y="89.76" width="3.4" height="5.25"/>
      <rect x="47.79" y="79.27" width="3.4" height="5.25"/>
      <rect x="47.79" y="68.74" width="3.4" height="5.28"/>
      <rect x="47.79" y="58.25" width="3.4" height="5.25"/>
      <rect x="47.79" y="47.75" width="3.4" height="5.25"/>
      <rect x="47.79" y="37.26" width="3.4" height="5.25"/>
      <rect x="47.79" y="26.77" width="3.4" height="5.25"/>
      <rect x="47.79" y="16.28" width="3.4" height="5.25"/>
      <rect x="44.39" y="100.25" width="3.4" height="5.25"/>
      <rect x="44.39" y="89.76" width="3.4" height="5.25"/>
      <rect x="44.39" y="79.27" width="3.4" height="5.25"/>
      <rect x="44.39" y="68.74" width="3.4" height="5.28"/>
      <rect x="44.39" y="58.25" width="3.4" height="5.25"/>
      <rect x="44.39" y="47.75" width="3.4" height="5.25"/>
      <rect x="44.39" y="37.26" width="3.4" height="5.25"/>
      <rect x="44.39" y="26.77" width="3.4" height="5.25"/>
      <rect x="41" y="100.25" width="3.4" height="5.25"/>
      <rect x="41" y="89.76" width="3.4" height="5.25"/>
      <rect x="41" y="79.27" width="3.4" height="5.25"/>
      <rect x="41" y="68.74" width="3.4" height="5.28"/>
      <rect x="41" y="58.25" width="3.4" height="5.25"/>
      <rect x="41" y="47.75" width="3.4" height="5.25"/>
      <rect x="41" y="37.26" width="3.4" height="5.25"/>
      <rect x="37.6" y="110.74" width="3.4" height="5.25"/>
      <rect x="37.6" y="100.25" width="3.4" height="5.25"/>
      <rect x="37.6" y="89.76" width="3.4" height="5.25"/>
      <rect x="37.6" y="79.27" width="3.4" height="5.25"/>
      <rect x="37.6" y="68.74" width="3.4" height="5.28"/>
      <rect x="37.6" y="58.25" width="3.4" height="5.25"/>
      <rect x="37.6" y="47.75" width="3.4" height="5.25"/>
      <rect x="34.2" y="121.23" width="3.4" height="5.25"/>
      <rect x="34.2" y="110.74" width="3.4" height="5.25"/>
      <rect x="34.2" y="100.25" width="3.4" height="5.25"/>
      <rect x="34.2" y="89.76" width="3.4" height="5.25"/>
      <rect x="34.2" y="79.27" width="3.4" height="5.25"/>
      <rect x="34.2" y="68.74" width="3.4" height="5.28"/>
      <rect x="34.2" y="58.25" width="3.4" height="5.25"/>
      <rect x="30.8" y="131.72" width="3.4" height="5.25"/>
      <rect x="30.8" y="121.23" width="3.4" height="5.25"/>
      <rect x="30.8" y="110.74" width="3.4" height="5.25"/>
      <rect x="30.8" y="100.25" width="3.4" height="5.25"/>
      <rect x="30.8" y="89.76" width="3.4" height="5.25"/>
      <rect x="30.8" y="79.27" width="3.4" height="5.25"/>
      <rect x="30.8" y="68.74" width="3.4" height="5.28"/>
      <rect x="27.4" y="142.22" width="3.4" height="5.28"/>
      <rect x="27.4" y="131.72" width="3.4" height="5.25"/>
      <rect x="27.4" y="121.23" width="3.4" height="5.25"/>
      <rect x="27.4" y="110.74" width="3.4" height="5.25"/>
      <rect x="27.4" y="100.25" width="3.4" height="5.25"/>
      <rect x="27.4" y="89.76" width="3.4" height="5.25"/>
      <rect x="27.4" y="79.27" width="3.4" height="5.25"/>
      <rect x="24.04" y="142.22" width="3.36" height="5.28"/>
      <rect x="24.04" y="131.72" width="3.36" height="5.25"/>
      <rect x="24.04" y="121.23" width="3.36" height="5.25"/>
      <rect x="24.04" y="110.74" width="3.36" height="5.25"/>
      <rect x="24.04" y="100.25" width="3.36" height="5.25"/>
      <rect x="24.04" y="89.76" width="3.36" height="5.25"/>
      <rect x="20.64" y="142.22" width="3.4" height="5.28"/>
      <rect x="20.64" y="131.72" width="3.4" height="5.25"/>
      <rect x="20.64" y="121.23" width="3.4" height="5.25"/>
      <rect x="20.64" y="110.74" width="3.4" height="5.25"/>
      <rect x="20.64" y="100.25" width="3.4" height="5.25"/>
      <rect x="17.24" y="142.22" width="3.4" height="5.28"/>
      <rect x="17.24" y="131.72" width="3.4" height="5.25"/>
      <rect x="17.24" y="121.23" width="3.4" height="5.25"/>
      <rect x="17.24" y="110.74" width="3.4" height="5.25"/>
      <rect x="13.84" y="142.22" width="3.4" height="5.28"/>
      <rect x="13.84" y="131.72" width="3.4" height="5.25"/>
      <rect x="13.84" y="121.23" width="3.4" height="5.25"/>
      <rect x="10.45" y="142.22" width="3.4" height="5.28"/>
      <rect x="10.45" y="131.72" width="3.4" height="5.25"/>
      <rect x="7.05" y="142.22" width="3.4" height="5.28"/>
    </g>
  </g>
</svg>