<?xml version="1.0" encoding="UTF-8"?>
<svg id="Livello_2" data-name="Livello 2" xmlns="http://www.w3.org/2000/svg" viewBox="0 0 126.16 163.48">
  <defs>
    <style>
      .cls-1 {
        fill: #1d1d1b;
      }

      .cls-2 {
        fill: #575756;
      }
    </style>
  </defs>
  <g id="Livello_1-2" data-name="Livello 1">
    <g>
      <rect class="cls-2" x=".25" y="157.08" width="125.66" height="1.05"/>
      <rect class="cls-2" x=".25" y="146.6" width="125.66" height="1.05"/>
      <rect class="cls-2" x=".25" y="136.13" width="125.66" height="1.05"/>
      <rect class="cls-2" x=".25" y="125.66" width="125.66" height="1.05"/>
      <rect class="cls-2" x=".25" y="115.19" width="125.66" height="1.05"/>
      <rect class="cls-2" x=".25" y="104.72" width="125.66" height="1.05"/>
      <rect class="cls-2" x=".25" y="94.25" width="125.66" height="1.05"/>
      <rect class="cls-2" x=".25" y="83.77" width="125.66" height="1.05"/>
      <rect class="cls-2" x=".25" y="73.3" width="125.66" height="1.05"/>
      <rect class="cls-2" x=".25" y="62.83" width="125.66" height="1.05"/>
      <rect class="cls-2" x=".25" y="52.36" width="125.66" height="1.05"/>
      <rect class="cls-2" x=".25" y="41.89" width="125.66" height="1.05"/>
      <rect class="cls-2" x=".25" y="31.42" width="125.66" height="1.05"/>
      <rect class="cls-2" x=".25" y="20.94" width="125.66" height="1.05"/>
      <rect class="cls-2" x=".25" y="10.47" width="125.66" height="1.05"/>
      <rect class="cls-2" x=".25" width="125.66" height="1.05"/>
    </g>
    <g>
      <rect class="cls-1" x="110.84" y="121.37" width="5.02" height="5.25"/>
      <rect class="cls-1" x="110.84" y="110.91" width="5.02" height="5.25"/>
      <rect class="cls-1" x="110.84" y="100.46" width="5.02" height="5.21"/>
      <rect class="cls-1" x="110.84" y="90" width="5.02" height="5.21"/>
      <rect class="cls-1" x="110.84" y="79.51" width="5.02" height="5.25"/>
      <rect class="cls-1" x="110.84" y="69.06" width="5.02" height="5.25"/>
      <rect class="cls-1" x="110.84" y="58.6" width="5.02" height="5.21"/>
      <rect class="cls-1" x="110.84" y="48.15" width="5.02" height="5.21"/>
      <rect class="cls-1" x="110.84" y="37.65" width="5.02" height="5.25"/>
      <rect class="cls-1" x="110.84" y="27.2" width="5.02" height="5.25"/>
      <rect class="cls-1" x="105.82" y="131.82" width="5.02" height="5.25"/>
      <rect class="cls-1" x="105.82" y="121.37" width="5.02" height="5.25"/>
      <rect class="cls-1" x="105.82" y="110.91" width="5.02" height="5.25"/>
      <rect class="cls-1" x="105.82" y="100.46" width="5.02" height="5.21"/>
      <rect class="cls-1" x="105.82" y="90" width="5.02" height="5.21"/>
      <rect class="cls-1" x="105.82" y="79.51" width="5.02" height="5.25"/>
      <rect class="cls-1" x="105.82" y="69.06" width="5.02" height="5.25"/>
      <rect class="cls-1" x="105.82" y="58.6" width="5.02" height="5.21"/>
      <rect class="cls-1" x="105.82" y="48.15" width="5.02" height="5.21"/>
      <rect class="cls-1" x="105.82" y="37.65" width="5.02" height="5.25"/>
      <rect class="cls-1" x="105.82" y="27.2" width="5.02" height="5.25"/>
      <rect class="cls-1" x="105.82" y="16.75" width="5.02" height="5.25"/>
      <rect class="cls-1" x="100.79" y="131.82" width="5.02" height="5.25"/>
      <rect class="cls-1" x="100.79" y="121.37" width="5.02" height="5.25"/>
      <rect class="cls-1" x="100.79" y="110.91" width="5.02" height="5.25"/>
      <rect class="cls-1" x="100.79" y="100.46" width="5.02" height="5.21"/>
      <rect class="cls-1" x="100.79" y="90" width="5.02" height="5.21"/>
      <rect class="cls-1" x="100.79" y="79.51" width="5.02" height="5.25"/>
      <rect class="cls-1" x="100.79" y="69.06" width="5.02" height="5.25"/>
      <rect class="cls-1" x="100.79" y="58.6" width="5.02" height="5.21"/>
      <rect class="cls-1" x="100.79" y="48.15" width="5.02" height="5.21"/>
      <rect class="cls-1" x="100.79" y="37.65" width="5.02" height="5.25"/>
      <rect class="cls-1" x="100.79" y="27.2" width="5.02" height="5.25"/>
      <rect class="cls-1" x="100.79" y="16.75" width="5.02" height="5.25"/>
      <rect class="cls-1" x="95.77" y="142.31" width="5.02" height="5.21"/>
      <rect class="cls-1" x="95.77" y="131.82" width="5.02" height="5.25"/>
      <rect class="cls-1" x="95.77" y="121.37" width="5.02" height="5.25"/>
      <rect class="cls-1" x="95.77" y="110.91" width="5.02" height="5.25"/>
      <rect class="cls-1" x="95.77" y="100.46" width="5.02" height="5.21"/>
      <rect class="cls-1" x="95.77" y="90" width="5.02" height="5.21"/>
      <rect class="cls-1" x="95.77" y="79.51" width="5.02" height="5.25"/>
      <rect class="cls-1" x="95.77" y="69.06" width="5.02" height="5.25"/>
      <rect class="cls-1" x="95.77" y="58.6" width="5.02" height="5.21"/>
      <rect class="cls-1" x="95.77" y="48.15" width="5.02" height="5.21"/>
      <rect class="cls-1" x="95.77" y="37.65" width="5.02" height="5.25"/>
      <rect class="cls-1" x="95.77" y="27.2" width="5.02" height="5.25"/>
      <rect class="cls-1" x="95.77" y="16.75" width="5.02" height="5.25"/>
      <rect class="cls-1" x="95.77" y="6.29" width="5.02" height="5.21"/>
      <rect class="cls-1" x="90.74" y="142.31" width="5.02" height="5.21"/>
      <rect class="cls-1" x="90.74" y="131.82" width="5.02" height="5.25"/>
      <rect class="cls-1" x="90.74" y="121.37" width="5.02" height="5.25"/>
      <rect class="cls-1" x="90.74" y="110.91" width="5.02" height="5.25"/>
      <rect class="cls-1" x="90.74" y="100.46" width="5.02" height="5.21"/>
      <rect class="cls-1" x="90.74" y="90" width="5.02" height="5.21"/>
      <rect class="cls-1" x="90.74" y="79.51" width="5.02" height="5.25"/>
      <rect class="cls-1" x="90.74" y="69.06" width="5.02" height="5.25"/>
      <rect class="cls-1" x="90.74" y="58.6" width="5.02" height="5.21"/>
      <rect class="cls-1" x="90.74" y="48.15" width="5.02" height="5.21"/>
      <rect class="cls-1" x="90.74" y="37.65" width="5.02" height="5.25"/>
      <rect class="cls-1" x="90.74" y="27.2" width="5.02" height="5.25"/>
      <rect class="cls-1" x="90.74" y="16.75" width="5.02" height="5.25"/>
      <rect class="cls-1" x="90.74" y="6.29" width="5.02" height="5.21"/>
      <rect class="cls-1" x="85.68" y="142.31" width="5.06" height="5.21"/>
      <rect class="cls-1" x="85.68" y="131.82" width="5.06" height="5.25"/>
      <rect class="cls-1" x="85.68" y="121.37" width="5.06" height="5.25"/>
      <rect class="cls-1" x="85.68" y="110.91" width="5.06" height="5.25"/>
      <rect class="cls-1" x="85.68" y="100.46" width="5.06" height="5.21"/>
      <rect class="cls-1" x="85.68" y="90" width="5.06" height="5.21"/>
      <rect class="cls-1" x="85.68" y="79.51" width="5.06" height="5.25"/>
      <rect class="cls-1" x="85.68" y="69.06" width="5.06" height="5.25"/>
      <rect class="cls-1" x="85.68" y="58.6" width="5.06" height="5.21"/>
      <rect class="cls-1" x="85.68" y="48.15" width="5.06" height="5.21"/>
      <rect class="cls-1" x="85.68" y="37.65" width="5.06" height="5.25"/>
      <rect class="cls-1" x="85.68" y="27.2" width="5.06" height="5.25"/>
      <rect class="cls-1" x="85.68" y="16.75" width="5.06" height="5.25"/>
      <rect class="cls-1" x="85.68" y="6.29" width="5.06" height="5.21"/>
      <rect class="cls-1" x="80.66" y="142.31" width="5.02" height="5.21"/>
      <rect class="cls-1" x="80.66" y="131.82" width="5.02" height="5.25"/>
      <rect class="cls-1" x="80.66" y="121.37" width="5.02" height="5.25"/>
      <rect class="cls-1" x="80.66" y="110.91" width="5.02" height="5.25"/>
      <rect class="cls-1" x="80.66" y="37.65" width="5.02" height="5.25"/>
      <rect class="cls-1" x="80.66" y="27.2" width="5.02" height="5.25"/>
      <rect class="cls-1" x="80.66" y="16.75" width="5.02" height="5.25"/>
      <rect class="cls-1" x="80.66" y="6.29" width="5.02" height="5.21"/>
      <rect class="cls-1" x="75.63" y="142.31" width="5.02" height="5.21"/>
      <rect class="cls-1" x="75.63" y="131.82" width="5.02" height="5.25"/>
      <rect class="cls-1" x="75.63" y="121.37" width="5.02" height="5.25"/>
      <rect class="cls-1" x="75.63" y="27.2" width="5.02" height="5.25"/>
      <rect class="cls-1" x="75.63" y="16.75" width="5.02" height="5.25"/>
      <rect class="cls-1" x="75.63" y="6.29" width="5.02" height="5.21"/>
      <rect class="cls-1" x="70.61" y="142.31" width="5.02" height="5.21"/>
      <rect class="cls-1" x="70.61" y="131.82" width="5.02" height="5.25"/>
      <rect class="cls-1" x="70.61" y="121.37" width="5.02" height="5.25"/>
      <rect class="cls-1" x="70.61" y="27.2" width="5.02" height="5.25"/>
      <rect class="cls-1" x="70.61" y="16.75" width="5.02" height="5.25"/>
      <rect class="cls-1" x="70.61" y="6.29" width="5.02" height="5.21"/>
      <rect class="cls-1" x="65.59" y="142.31" width="5.02" height="5.21"/>
      <rect class="cls-1" x="65.59" y="131.82" width="5.02" height="5.25"/>
      <rect class="cls-1" x="65.59" y="121.37" width="5.02" height="5.25"/>
      <rect class="cls-1" x="65.59" y="27.2" width="5.02" height="5.25"/>
      <rect class="cls-1" x="65.59" y="16.75" width="5.02" height="5.25"/>
      <rect class="cls-1" x="65.59" y="6.29" width="5.02" height="5.21"/>
      <rect class="cls-1" x="60.56" y="142.31" width="5.02" height="5.21"/>
      <rect class="cls-1" x="60.56" y="131.82" width="5.02" height="5.25"/>
      <rect class="cls-1" x="60.56" y="121.37" width="5.02" height="5.25"/>
      <rect class="cls-1" x="60.56" y="27.2" width="5.02" height="5.25"/>
      <rect class="cls-1" x="60.56" y="16.75" width="5.02" height="5.25"/>
      <rect class="cls-1" x="60.56" y="6.29" width="5.02" height="5.21"/>
      <rect class="cls-1" x="55.54" y="142.31" width="5.02" height="5.21"/>
      <rect class="cls-1" x="55.54" y="131.82" width="5.02" height="5.25"/>
      <rect class="cls-1" x="55.54" y="121.37" width="5.02" height="5.25"/>
      <rect class="cls-1" x="55.54" y="27.2" width="5.02" height="5.25"/>
      <rect class="cls-1" x="55.54" y="16.75" width="5.02" height="5.25"/>
      <rect class="cls-1" x="55.54" y="6.29" width="5.02" height="5.21"/>
      <rect class="cls-1" x="50.51" y="142.31" width="5.02" height="5.21"/>
      <rect class="cls-1" x="50.51" y="131.82" width="5.02" height="5.25"/>
      <rect class="cls-1" x="50.51" y="121.37" width="5.02" height="5.25"/>
      <rect class="cls-1" x="50.51" y="27.2" width="5.02" height="5.25"/>
      <rect class="cls-1" x="50.51" y="16.75" width="5.02" height="5.25"/>
      <rect class="cls-1" x="50.51" y="6.29" width="5.02" height="5.21"/>
      <rect class="cls-1" x="45.49" y="142.31" width="5.02" height="5.21"/>
      <rect class="cls-1" x="45.49" y="131.82" width="5.02" height="5.25"/>
      <rect class="cls-1" x="45.49" y="121.37" width="5.02" height="5.25"/>
      <rect class="cls-1" x="45.49" y="27.2" width="5.02" height="5.25"/>
      <rect class="cls-1" x="45.49" y="16.75" width="5.02" height="5.25"/>
      <rect class="cls-1" x="45.49" y="6.29" width="5.02" height="5.21"/>
      <rect class="cls-1" x="40.47" y="142.31" width="5.02" height="5.21"/>
      <rect class="cls-1" x="40.47" y="131.82" width="5.02" height="5.25"/>
      <rect class="cls-1" x="40.47" y="121.37" width="5.02" height="5.25"/>
      <rect class="cls-1" x="40.47" y="27.2" width="5.02" height="5.25"/>
      <rect class="cls-1" x="40.47" y="16.75" width="5.02" height="5.25"/>
      <rect class="cls-1" x="40.47" y="6.29" width="5.02" height="5.21"/>
      <rect class="cls-1" x="35.44" y="142.31" width="5.02" height="5.21"/>
      <rect class="cls-1" x="35.44" y="131.82" width="5.02" height="5.25"/>
      <rect class="cls-1" x="35.44" y="121.37" width="5.02" height="5.25"/>
      <rect class="cls-1" x="35.44" y="110.91" width="5.02" height="5.25"/>
      <rect class="cls-1" x="35.44" y="100.46" width="5.02" height="5.21"/>
      <rect class="cls-1" x="35.44" y="90" width="5.02" height="5.21"/>
      <rect class="cls-1" x="35.44" y="79.51" width="5.02" height="5.25"/>
      <rect class="cls-1" x="35.44" y="69.06" width="5.02" height="5.25"/>
      <rect class="cls-1" x="35.44" y="58.6" width="5.02" height="5.21"/>
      <rect class="cls-1" x="35.44" y="48.15" width="5.02" height="5.21"/>
      <rect class="cls-1" x="35.44" y="37.65" width="5.02" height="5.25"/>
      <rect class="cls-1" x="35.44" y="27.2" width="5.02" height="5.25"/>
      <rect class="cls-1" x="35.44" y="16.75" width="5.02" height="5.25"/>
      <rect class="cls-1" x="35.44" y="6.29" width="5.02" height="5.21"/>
      <rect class="cls-1" x="30.42" y="142.31" width="5.02" height="5.21"/>
      <rect class="cls-1" x="30.42" y="131.82" width="5.02" height="5.25"/>
      <rect class="cls-1" x="30.42" y="121.37" width="5.02" height="5.25"/>
      <rect class="cls-1" x="30.42" y="110.91" width="5.02" height="5.25"/>
      <rect class="cls-1" x="30.42" y="100.46" width="5.02" height="5.21"/>
      <rect class="cls-1" x="30.42" y="90" width="5.02" height="5.21"/>
      <rect class="cls-1" x="30.42" y="79.51" width="5.02" height="5.25"/>
      <rect class="cls-1" x="30.42" y="69.06" width="5.02" height="5.25"/>
      <rect class="cls-1" x="30.42" y="58.6" width="5.02" height="5.21"/>
      <rect class="cls-1" x="30.42" y="48.15" width="5.02" height="5.21"/>
      <rect class="cls-1" x="30.42" y="37.65" width="5.02" height="5.25"/>
      <rect class="cls-1" x="30.42" y="27.2" width="5.02" height="5.25"/>
      <rect class="cls-1" x="30.42" y="16.75" width="5.02" height="5.25"/>
      <rect class="cls-1" x="30.42" y="6.29" width="5.02" height="5.21"/>
      <rect class="cls-1" x="25.39" y="142.31" width="5.02" height="5.21"/>
      <rect class="cls-1" x="25.39" y="131.82" width="5.02" height="5.25"/>
      <rect class="cls-1" x="25.39" y="121.37" width="5.02" height="5.25"/>
      <rect class="cls-1" x="25.39" y="110.91" width="5.02" height="5.25"/>
      <rect class="cls-1" x="25.39" y="100.46" width="5.02" height="5.21"/>
      <rect class="cls-1" x="25.39" y="90" width="5.02" height="5.21"/>
      <rect class="cls-1" x="25.39" y="79.51" width="5.02" height="5.25"/>
      <rect class="cls-1" x="25.39" y="69.06" width="5.02" height="5.25"/>
      <rect class="cls-1" x="25.39" y="58.6" width="5.02" height="5.21"/>
      <rect class="cls-1" x="25.39" y="48.15" width="5.02" height="5.21"/>
      <rect class="cls-1" x="25.39" y="37.65" width="5.02" height="5.25"/>
      <rect class="cls-1" x="25.39" y="27.2" width="5.02" height="5.25"/>
      <rect class="cls-1" x="25.39" y="16.75" width="5.02" height="5.25"/>
      <rect class="cls-1" x="25.39" y="6.29" width="5.02" height="5.21"/>
      <rect class="cls-1" x="20.37" y="142.31" width="5.02" height="5.21"/>
      <rect class="cls-1" x="20.37" y="131.82" width="5.02" height="5.25"/>
      <rect class="cls-1" x="20.37" y="121.37" width="5.02" height="5.25"/>
      <rect class="cls-1" x="20.37" y="110.91" width="5.02" height="5.25"/>
      <rect class="cls-1" x="20.37" y="100.46" width="5.02" height="5.21"/>
      <rect class="cls-1" x="20.37" y="90" width="5.02" height="5.21"/>
      <rect class="cls-1" x="20.37" y="79.51" width="5.02" height="5.25"/>
      <rect class="cls-1" x="20.37" y="69.06" width="5.02" height="5.25"/>
      <rect class="cls-1" x="20.37" y="58.6" width="5.02" height="5.21"/>
      <rect class="cls-1" x="20.37" y="48.15" width="5.02" height="5.21"/>
      <rect class="cls-1" x="20.37" y="37.65" width="5.02" height="5.25"/>
      <rect class="cls-1" x="20.37" y="27.2" width="5.02" height="5.25"/>
      <rect class="cls-1" x="20.37" y="16.75" width="5.02" height="5.25"/>
      <rect class="cls-1" x="20.37" y="6.29" width="5.02" height="5.21"/>
      <rect class="cls-1" x="15.35" y="142.31" width="5.02" height="5.21"/>
      <rect class="cls-1" x="15.35" y="131.82" width="5.02" height="5.25"/>
      <rect class="cls-1" x="15.35" y="121.37" width="5.02" height="5.25"/>
      <rect class="cls-1" x="15.35" y="110.91" width="5.02" height="5.25"/>
      <rect class="cls-1" x="15.35" y="100.46" width="5.02" height="5.21"/>
      <rect class="cls-1" x="15.35" y="90" width="5.02" height="5.21"/>
      <rect class="cls-1" x="15.35" y="79.51" width="5.02" height="5.25"/>
      <rect class="cls-1" x="15.35" y="69.06" width="5.02" height="5.25"/>
      <rect class="cls-1" x="15.35" y="58.6" width="5.02" height="5.21"/>
      <rect class="cls-1" x="15.35" y="48.15" width="5.02" height="5.21"/>
      <rect class="cls-1" x="15.35" y="37.65" width="5.02" height="5.25"/>
      <rect class="cls-1" x="15.35" y="27.2" width="5.02" height="5.25"/>
      <rect class="cls-1" x="15.35" y="16.75" width="5.02" height="5.25"/>
      <rect class="cls-1" x="15.35" y="6.29" width="5.02" height="5.21"/>
      <rect class="cls-1" x="10.32" y="142.31" width="5.02" height="5.21"/>
      <rect class="cls-1" x="10.32" y="131.82" width="5.02" height="5.25"/>
      <rect class="cls-1" x="10.32" y="121.37" width="5.02" height="5.25"/>
      <rect class="cls-1" x="10.32" y="110.91" width="5.02" height="5.25"/>
      <rect class="cls-1" x="10.32" y="100.46" width="5.02" height="5.21"/>
      <rect class="cls-1" x="10.32" y="90" width="5.02" height="5.21"/>
      <rect class="cls-1" x="10.32" y="79.51" width="5.02" height="5.25"/>
      <rect class="cls-1" x="10.32" y="69.06" width="5.02" height="5.25"/>
      <rect class="cls-1" x="10.32" y="58.6" width="5.02" height="5.21"/>
      <rect class="cls-1" x="10.32" y="48.15" width="5.02" height="5.21"/>
      <rect class="cls-1" x="10.32" y="37.65" width="5.02" height="5.25"/>
      <rect class="cls-1" x="10.32" y="27.2" width="5.02" height="5.25"/>
      <rect class="cls-1" x="10.32" y="16.75" width="5.02" height="5.25"/>
      <rect class="cls-1" x="10.32" y="6.29" width="5.02" height="5.21"/>
    </g>
  </g>
</svg>
